<svg width="24" height="25" viewBox="0 0 24 25" fill="none" xmlns="http://www.w3.org/2000/svg">
<g clip-path="url(#clip0_181_2590)">
<path d="M23.715 9.98777L12.465 0.987774C12.332 0.881271 12.1667 0.823242 11.9963 0.823242C11.8258 0.823242 11.6605 0.881271 11.5275 0.987774L0.2775 9.98777C0.156135 10.0851 0.0680565 10.2178 0.025468 10.3675C-0.0171205 10.5171 -0.0121105 10.6763 0.0398037 10.823C0.091718 10.9697 0.187966 11.0966 0.315214 11.1861C0.442461 11.2757 0.594407 11.3234 0.75 11.3228H2.25V24.0728C2.25 24.2717 2.32902 24.4625 2.46967 24.6031C2.61032 24.7438 2.80109 24.8228 3 24.8228H18V23.3228H15V16.5728C15 16.3739 14.921 16.1831 14.7803 16.0424C14.6397 15.9018 14.4489 15.8228 14.25 15.8228H9.75C9.55109 15.8228 9.36032 15.9018 9.21967 16.0424C9.07902 16.1831 9 16.3739 9 16.5728V23.3228H3.75V11.3228H16.5V9.82277H2.8875L12 2.53277L21.1125 9.82277H21C20.8011 9.82277 20.6103 9.90179 20.4697 10.0424C20.329 10.1831 20.25 10.3739 20.25 10.5728V15.0728H21.75V11.3228H23.25C23.405 11.3219 23.5558 11.273 23.6819 11.1829C23.8079 11.0928 23.903 10.9658 23.9539 10.8195C24.0049 10.6732 24.0093 10.5146 23.9665 10.3657C23.9237 10.2168 23.8359 10.0847 23.715 9.98777ZM10.5 17.3228H13.5V23.3228H10.5V17.3228Z" fill="white"/>
<path d="M18.75 20.7654L17.7825 19.7979L16.725 20.8554L18.225 22.3554C18.3655 22.495 18.5556 22.5734 18.7537 22.5734C18.9519 22.5734 19.142 22.495 19.2825 22.3554L23.7825 17.8554L22.725 16.7979L18.75 20.7654Z" fill="white"/>
</g>
<defs>
<clipPath id="clip0_181_2590">
<rect width="24" height="24" fill="white" transform="translate(0 0.822754)"/>
</clipPath>
</defs>
</svg>
