<svg width="20" height="21" viewBox="0 0 20 21" fill="none" xmlns="http://www.w3.org/2000/svg">
<path d="M19.4282 2.90101L19.3951 2.88037L15.2186 0.822754L10.7107 6.83326L12.7847 9.59872C12.7226 10.6416 12.2803 11.6256 11.5416 12.3644C10.8028 13.1031 9.8188 13.5454 8.77587 13.6075L6.01045 11.5335L0 16.0413L2.04049 20.1829L2.05767 20.2179L2.07836 20.2509C2.18725 20.4263 2.33923 20.571 2.51984 20.6711C2.70046 20.7712 2.90368 20.8234 3.11018 20.8227H4.18787C6.26435 20.8227 8.3205 20.4138 10.2389 19.6191C12.1573 18.8245 13.9005 17.6598 15.3687 16.1915C16.837 14.7232 18.0017 12.9801 18.7964 11.0616C19.591 9.14321 20 7.08706 20 5.01058V3.93284C20.0007 3.72634 19.9485 3.52312 19.8484 3.34251C19.7483 3.16189 19.6036 3.00991 19.4282 2.90101ZM18.4566 5.01058C18.4566 12.8784 12.0556 19.2793 4.18787 19.2793H3.31584L1.95059 16.5078L6.01074 13.4627L8.27122 15.158H8.52845C10.0681 15.1562 11.5441 14.5439 12.6328 13.4552C13.7215 12.3665 14.3338 10.8905 14.3356 9.35086V9.09364L12.6403 6.83321L15.685 2.7733L18.4566 4.13879V5.01058Z" fill="#2B2B2B"/>
</svg>
