<svg width="25" height="26" viewBox="0 0 25 26" fill="none" xmlns="http://www.w3.org/2000/svg">
<path d="M23.7464 10.5684L13.1078 0.7808C12.762 0.462614 12.3065 0.290416 11.8367 0.3002C11.3668 0.309984 10.9189 0.500992 10.5866 0.8333L0.802174 10.6178L0.300049 11.1199V25.5442H9.72862V16.5442H14.8715V25.5442H24.3V11.0777L23.7464 10.5684ZM11.8735 2.01412C11.8886 2.01412 11.8793 2.01739 11.8728 2.02376C11.8661 2.01739 11.8584 2.01412 11.8735 2.01412ZM22.5858 23.83H16.5858V16.5442C16.5858 16.0896 16.4052 15.6536 16.0837 15.3321C15.7622 15.0106 15.3261 14.83 14.8715 14.83H9.72862C9.27396 14.83 8.83793 15.0106 8.51644 15.3321C8.19495 15.6536 8.01434 16.0896 8.01434 16.5442V23.83H2.01433L2.01433 11.83L11.8735 2.04546L11.8748 2.04359L22.5858 11.83V23.83Z" fill="white" stroke="white" stroke-width="0.6"/>
</svg>
