<svg width="22" height="23" viewBox="0 0 22 23" fill="none" xmlns="http://www.w3.org/2000/svg">
<path d="M4.92503 22.823H0.363799V8.13438H4.92503V22.823ZM2.64167 6.13074C1.18333 6.13074 0 4.92227 0 3.46393C0 2.00559 1.18254 0.822266 2.64167 0.822266C4.10079 0.822266 5.28333 2.00481 5.28333 3.46393C5.28333 4.92227 4.1 6.13074 2.64167 6.13074ZM21.9961 22.823H17.4451V15.6728C17.4451 13.9685 17.4105 11.7834 15.0737 11.7834C12.7023 11.7834 12.3385 13.6346 12.3385 15.5502V22.823H7.78199V8.13438H12.1562V10.138H12.2199C12.8288 8.98377 14.3162 7.76587 16.5352 7.76587C21.1514 7.76587 22 10.8059 22 14.7543V22.823H21.9961Z" fill="#3A0CA3"/>
</svg>
