<svg width="23" height="23" viewBox="0 0 23 23" fill="none" xmlns="http://www.w3.org/2000/svg">
<path d="M11.7823 0.822754C8.79204 0.822754 8.41937 0.837193 7.24909 0.886699C6.07401 0.944457 5.27916 1.12667 4.57782 1.39895C3.85448 1.68224 3.23841 2.05835 2.62989 2.6703C2.01725 3.27881 1.63771 3.89489 1.35855 4.61823C1.08626 5.31957 0.904051 6.11442 0.846294 7.2895C0.79335 8.46046 0.782349 8.83244 0.782349 11.8228C0.782349 14.8131 0.796788 15.1857 0.846294 16.356C0.904051 17.5277 1.08626 18.3259 1.35855 19.0273C1.64183 19.7506 2.01794 20.3667 2.62989 20.9752C3.23841 21.5878 3.85448 21.9674 4.57782 22.2466C5.27916 22.5154 6.07745 22.7011 7.24909 22.7588C8.42005 22.8118 8.79204 22.8228 11.7823 22.8228C14.7727 22.8228 15.1453 22.8083 16.3156 22.7588C17.4872 22.7011 18.2855 22.5147 18.9869 22.2466C19.7102 21.9633 20.3263 21.5872 20.9348 20.9752C21.5474 20.3667 21.927 19.7541 22.2062 19.0273C22.475 18.3259 22.6606 17.5277 22.7184 16.356C22.7713 15.185 22.7823 14.8131 22.7823 11.8228C22.7823 8.83244 22.7679 8.45977 22.7184 7.2895C22.6606 6.11785 22.4743 5.31544 22.2062 4.61823C21.9229 3.89489 21.5468 3.27881 20.9348 2.6703C20.3263 2.05766 19.7137 1.67811 18.9869 1.39895C18.2855 1.12667 17.4872 0.944457 16.3156 0.886699C15.1446 0.833755 14.7727 0.822754 11.7823 0.822754ZM11.7823 2.803C14.719 2.803 15.0697 2.81744 16.2303 2.86695C17.3009 2.91714 17.884 3.09591 18.2711 3.24718C18.7875 3.44727 19.1485 3.6838 19.539 4.07022C19.922 4.45321 20.1585 4.81832 20.3586 5.33469C20.5099 5.7218 20.6886 6.30488 20.7388 7.37545C20.7883 8.53609 20.8028 8.88745 20.8028 11.8234C20.8028 14.7594 20.7883 15.1108 20.7347 16.2714C20.677 17.342 20.4982 17.9251 20.3476 18.3122C20.1393 18.8286 19.9069 19.1896 19.5232 19.5801C19.1361 19.9631 18.7675 20.1996 18.2553 20.3997C17.873 20.551 17.2817 20.7297 16.207 20.7799C15.0401 20.8294 14.6963 20.8439 11.7521 20.8439C8.80785 20.8439 8.46475 20.8294 7.29654 20.7758C6.22597 20.7181 5.63533 20.5393 5.24822 20.3887C4.72565 20.1804 4.36742 19.948 3.98375 19.5643C3.59664 19.1772 3.35048 18.8086 3.16071 18.2964C3.00669 17.9141 2.83067 17.3228 2.7736 16.2481C2.73441 15.095 2.71584 14.7374 2.71584 11.8069C2.71584 8.87782 2.73441 8.51959 2.7736 7.35207C2.83067 6.27737 3.00669 5.68742 3.16071 5.30375C3.35048 4.7805 3.59733 4.42295 3.98375 4.03584C4.36673 3.65286 4.72565 3.40533 5.24822 3.21143C5.63533 3.06085 6.21153 2.88207 7.28622 2.82844C8.45306 2.7865 8.79685 2.77137 11.737 2.77137L11.7823 2.803ZM11.7823 6.17699C8.66002 6.17699 6.13521 8.70524 6.13521 11.8241C6.13521 14.9465 8.66346 17.4713 11.7823 17.4713C14.9047 17.4713 17.4295 14.943 17.4295 11.8241C17.4295 8.7018 14.9012 6.17699 11.7823 6.17699ZM11.7823 15.491C9.75535 15.491 8.11545 13.8511 8.11545 11.8241C8.11545 9.79713 9.75535 8.15723 11.7823 8.15723C13.8094 8.15723 15.4492 9.79713 15.4492 11.8241C15.4492 13.8511 13.8094 15.491 11.7823 15.491ZM18.9772 5.95146C18.9772 6.68236 18.3825 7.27231 17.655 7.27231C16.9241 7.27231 16.3342 6.68167 16.3342 5.95146C16.3342 5.22468 16.9282 4.63336 17.655 4.63336C18.3818 4.63336 18.9772 5.22468 18.9772 5.95146Z" fill="#3A0CA3"/>
</svg>
