<svg width="26" height="25" viewBox="0 0 26 25" fill="none" xmlns="http://www.w3.org/2000/svg">
<path d="M25.2076 9.54657L13.4883 0.17139C13.3497 0.0604479 13.1775 0 13 0C12.8225 0 12.6503 0.0604479 12.5117 0.17139L0.792382 9.54657C0.665955 9.648 0.574202 9.78623 0.529837 9.94212C0.485472 10.098 0.490691 10.2638 0.54477 10.4166C0.59885 10.5694 0.699114 10.7016 0.831669 10.7949C0.964225 10.8882 1.12251 10.9379 1.28459 10.9372H2.84717V24.2187C2.84717 24.4259 2.92948 24.6247 3.076 24.7712C3.22252 24.9177 3.42125 25 3.62846 25H19.2542V23.4375H16.1291V16.4061C16.1291 16.1989 16.0467 16.0002 15.9002 15.8536C15.7537 15.7071 15.555 15.6248 15.3478 15.6248H10.66C10.4528 15.6248 10.2541 15.7071 10.1076 15.8536C9.96107 16.0002 9.87875 16.1989 9.87875 16.4061V23.4375H4.40974V10.9372H17.6916V9.3747H3.51126L13.0039 1.7808L22.4965 9.3747H22.3793C22.1721 9.3747 21.9734 9.45701 21.8269 9.60352C21.6804 9.75004 21.5981 9.94876 21.5981 10.156V14.8436H23.1606V10.9372H24.7232C24.8846 10.9363 25.0418 10.8854 25.1731 10.7915C25.3044 10.6976 25.4034 10.5654 25.4565 10.413C25.5096 10.2605 25.5142 10.0954 25.4696 9.94025C25.4251 9.78511 25.3335 9.64758 25.2076 9.54657ZM11.4413 17.1873H14.5665V23.4375H11.4413V17.1873Z" fill="white"/>
<path d="M20.0355 20.7734L19.0276 19.7655L17.926 20.8671L19.4886 22.4296C19.635 22.5752 19.833 22.6568 20.0394 22.6568C20.2458 22.6568 20.4438 22.5752 20.5902 22.4296L25.2779 17.742L24.1763 16.6405L20.0355 20.7734Z" fill="white"/>
</svg>
